<?xml version="1.0" encoding="UTF-8"?>
<svg id="Layer_1" xmlns="http://www.w3.org/2000/svg" viewBox="0 0 267.09 150">
  <defs>
    <style>
      .cls-1 {
        fill: #fff;
      }
    </style>
  </defs>
  <path class="cls-1" d="M74.95,138.25c-34.94,0-63.36-28.44-63.3-63.35.06-34.96,28.52-63.37,63.38-63.26,12.99.04,25.04,3.97,35.06,10.67,3.97-1.96,8.56-3.58,13.58-4.25-6.41-5.35-13.93-9.79-22.58-13.32-6.38-2.6-13.12-3.95-20.01-4.46-.23-.02-.5.04-.57-.29h-11.71c-1.48.65-3.09.57-4.63.79C33.46,5.21,8.42,28.5,1.76,58.89c-8.54,38.98,14.67,77.88,53.53,88.23,21.97,5.86,41.91,2.71,59.44-8.75-5.62-1.39-10.15-3.5-13.71-5.75-7.96,3.61-16.78,5.64-26.07,5.63Z"/>
  <path class="cls-1" d="M69.13,40.97c-.02,11.31,0,22.63,0,33.94,0,2.31.93,4.11,2.8,5.49,3.96,2.92,7.88,5.9,11.82,8.85,3.63,2.72,7.22,5.49,10.89,8.14,3.5,2.54,8.18.9,9.16-3.21.64-2.66-.41-4.73-2.57-6.34-6.52-4.87-13.01-9.77-19.54-14.63-.65-.48-.92-.97-.91-1.8.04-5.07.02-10.14.02-15.22s0-9.95,0-14.92c0-1.45-.25-2.81-1.1-4.02-1.42-2.02-3.96-2.92-6.31-2.22-2.67.79-4.24,2.92-4.25,5.94Z"/>
  <g>
    <path class="cls-1" d="M155.05,78.06c-.55-.28-1.08-.53-1.59-.75v-.5c.52-.24,1.05-.52,1.59-.82,7.14-3.99,15.42-12.95,15.42-24.77,0-18.49-16.51-30.22-35.67-30.22-1.55,0-3.05.14-4.53.34-4.74.63-9.09,2.16-12.84,4.02-8.65,4.28-14.17,10.18-14.17,10.18-1.16,1.16-1.32,3.14,0,4.29l10.07,9.91c1.32,1.16,3.3,1.16,4.46-.17,2.48-2.81,7.1-6.6,14.36-6.6.91,0,1.8.09,2.67.26,5.9,1.13,10.54,5.94,10.54,12.13,0,2.71-.9,5.2-2.65,7.25-2.83,3.31-7.88,5.46-15.02,5.46h-9.25c-1.65,0-3.14,1.32-3.14,3.14v13.71c0,1.65,1.48,3.14,3.14,3.14h9.25c5.87,0,10.62,1.42,13.99,3.69,3.64,2.46,5.66,5.91,5.66,9.68,0,7.27-7.27,13.21-14.36,13.21-1.14,0-2.32-.17-3.51-.44-7.14-1.6-14.65-7.16-14.65-7.16-1.32-.99-2.97-.83-4.13.33l-10.4,10.4c-.99,1.16-1.15,2.97-.16,4.13,1.5,1.93,4.33,4.93,8.73,7.72,3.36,2.13,7.65,4.13,12.96,5.44,3.84.95,8.2,1.54,13.16,1.54,22.78,0,38.47-13.54,38.47-31.54,0-13.27-10.66-23.07-18.39-26.99Z"/>
    <path class="cls-1" d="M235.55,65.09c-4.95,0-10.4,1.32-15.36,3.8V20.34c0-1.65-1.48-3.14-3.14-3.14h-18.33c-1.65,0-3.14,1.49-3.14,3.14v109.31c0,1.65,1.48,3.14,3.14,3.14h17.83c2.81,0,3.63-.99,3.63-3.14v-30.22c0-10.07,5.78-13.04,11.06-13.04,7.27,0,12.05,5.78,12.05,13.04v30.22c0,1.65,1.32,3.14,3.14,3.14h17.5c1.65,0,3.14-1.49,3.14-3.14v-29.89c0-18.33-10.73-34.68-31.54-34.68Z"/>
  </g>
</svg>