<?xml version="1.0" encoding="UTF-8"?>
<svg xmlns="http://www.w3.org/2000/svg" version="1.1" viewBox="0 0 2500 1563">
  <g>
    <g id="Layer_2">
      <g>
        <path fill="currentColor" d="M625.7,624.3c-173.3,0-313.4,140.1-313.4,312.9s140.1,312.9,312.9,312.9,312.9-140.1,312.9-312.9c.5-172.8-139.6-312.9-312.4-312.9h0ZM625.7,1161.2c-123.5,0-224-100.1-224-224s100.1-224,224-224,223.5,100.5,223.5,224-100.1,224-223.5,224Z"/>
        <circle fill="currentColor" cx="626.7" cy="936.7" r="155.7"/>
        <path fill="currentColor" d="M1875.2,624.3c-172.8,0-312.9,140.1-312.9,312.9s140.1,312.9,312.9,312.9,312.9-140.1,312.9-312.9-140.1-312.9-312.9-312.9ZM1875.2,1161.2c-123.5,0-224-100.1-224-224s100.1-224,224-224,223.5,100.5,223.5,224-100.1,224-223.5,224Z"/>
        <circle fill="currentColor" cx="1876.2" cy="936.7" r="155.7"/>
        <path fill="currentColor" d="M2315.5,494l184-182.5h-372.9C1917.7,141.6,1570.7,0,1249,0S582.8,141.6,373.9,311.5H0l184,182.5C70.3,607.3,0,763.9,0,937.2c0,345.6,280.2,625.7,625.7,625.7s303.6-59.1,413.9-156.7l211.8,155.7,209.4-152.3-2.4-5.9c110.8,98.6,256.2,158.6,416.3,158.6,345.6,0,625.7-280.2,625.7-625.7-.5-172.8-71.3-329.5-185-442.7h0ZM1796.2,316.3c-296.3,37.1-528.6,281.1-546.2,583.3-18.1-302.6-250.9-547.1-548.1-583.3,149.4-107.4,339.7-160.1,547.1-160.1s397.8,52.7,547.1,160.1ZM625.7,1406.7c-259.7,0-469.5-210.4-469.5-469.5s210.4-469.5,469.5-469.5,469.5,210.4,469.5,469.5c-.5,259.2-210.4,469.5-469.5,469.5ZM1875.2,1406.7c-259.2,0-469.5-210.4-469.5-469.5s210.4-469.5,469.5-469.5,469.5,210.4,469.5,469.5c-.5,259.2-210.4,469.5-469.5,469.5Z"/>
      </g>
    </g>
  </g>
</svg>