<svg xmlns="http://www.w3.org/2000/svg" width="128" height="128" viewBox="0 0 48 48"><ellipse cx="24.1" cy="24.2" rx="23.6" ry="23.9" fill="#1c355e">
        
    
        
        
        
        
        
        
        
        
        
        </ellipse>
    <g clip-rule="evenodd" fill-rule="evenodd" fill="#ffffff">
        <path d="M 18.9 7.6 a 1 1 0 0 1 1 1 v 6.6 a 1 1 0 1 1 -2 0 v -6.6 a 1 1 0 0 1 1 -1"/>
        <path d="M 11.8 13.9 c 1.1 -0.3 2.3 -0.1 3.5 0.6 c 1 0.5 1.7 0.7 2.2 0.8 c 0.5 0.1 1 0.1 1.5 0.1 v 2 h 0 c -0.5 0 -1.1 0 -1.9 -0.2 c -0.8 -0.2 -1.6 -0.5 -2.7 -1 c -0.9 -0.5 -1.5 -0.5 -2.1 -0.4 c -0.6 0.1 -1.2 0.5 -1.9 1.3 c -1.6 1.7 -2.1 3.4 -2.3 4.8 c -0.1 1.6 0.2 4.9 1.7 8.1 c 0.5 1.1 1.2 2.6 2.1 3.7 c 0.4 0.6 0.9 1 1.3 1.3 c 0.4 0.3 0.7 0.3 1 0.3 c 3.1 -0.5 3.7 -0.6 4.3 -0.6 h 1 v 2 H 18.4 c -0.4 0 -0.9 0 -4 0.5 c -0.9 0.2 -1.8 -0.1 -2.5 -0.6 c -0.7 -0.5 -1.3 -1.1 -1.8 -1.8 c -1 -1.4 -1.8 -3 -2.3 -4.1 c -1.6 -3.5 -2 -7.1 -1.8 -9.1 l 0 0 l 0 0 c 0.2 -1.6 0.8 -3.8 2.9 -5.9 c 0.8 -0.9 1.8 -1.6 2.9 -1.8"/>
        <path d="M 14.6 11.4 c 1.5 1.4 2.3 3.2 2.3 4.5 a 1 1 0 1 0 2 0 c 0 -2 -1.2 -4.3 -2.9 -6 C 14.2 8.3 11.7 7 8.9 7 a 1 1 0 0 0 0 2 c 2.2 0 4.3 1 5.7 2.4"/>
        <path d="M 8.6 7 a 1 1 0 0 1 1.1 0.9 c 0.5 3.9 3.9 6 6.7 7.1 a 1 1 0 0 1 -0.7 1.9 c -2.9 -1.1 -7.3 -3.6 -8 -8.7 a 1 1 0 0 1 0.9 -1.1 m 17.2 6.9 c -1.2 -0.3 -2.3 -0.1 -3.6 0.5 c -1 0.5 -1.7 0.7 -2.3 0.9 s -1 0.1 -1.6 0.1 a 1 1 0 0 0 0 2 h 0 c 0.5 0 1.2 0 1.9 -0.2 c 0.8 -0.2 1.7 -0.5 2.8 -1 c 0.9 -0.5 1.6 -0.5 2.2 -0.4 c 0.6 0.1 1.3 0.5 2 1.3 c 1.7 1.7 2.2 3.5 2.4 4.8 a 1 1 0 0 0 2 -0.3 c -0.2 -1.7 -0.9 -3.9 -3 -5.9 c -0.9 -0.9 -1.9 -1.5 -3 -1.8 m 0.9 20.4 a 1 1 0 0 0 -1.4 0 c -0.8 0.8 -1.4 1.1 -1.9 1 c -3.3 -0.5 -3.9 -0.6 -4.5 -0.6 a 1 1 0 0 0 0 2 h 0 c 0.4 0 1 0 4.1 0.5 c 1.5 0.3 2.8 -0.6 3.7 -1.5 a 1 1 0 0 0 0 -1.4"/>
        <path d="M 32.6 16.1 c -1 1.8 -1.3 3.7 -0.9 5 a 1 1 0 1 1 -1.9 0.6 c -0.6 -2 -0.2 -4.4 1 -6.6 c 1.2 -2.2 3.2 -4.1 5.9 -4.9 a 1 1 0 1 1 0.6 1.9 c -2.1 0.7 -3.8 2.2 -4.8 4"/>
        <path d="M 34.7 17.4 c -1.2 1.7 -2.7 2.8 -4.1 3 a 1 1 0 1 0 0.3 2 c 2 -0.3 4 -1.9 5.4 -3.9 c 1.4 -2 2.2 -4.7 1.8 -7.5 a 1 1 0 1 0 -2 0.3 c 0.4 2.2 -0.3 4.4 -1.4 6.1"/>
        <path d="M 31.8 23 a 2.5 2.5 0 1 0 0 5 a 2.5 2.5 0 0 0 0 -5 m -4.5 2.5 a 4.5 4.5 0 1 1 9 0 a 4.5 4.5 0 0 1 -9 0"/>
        <path d="M 37.8 18.1 a 4.5 4.5 0 0 1 2.7 5.8 a 1 1 0 1 1 -1.9 -0.7 a 2.5 2.5 0 1 0 -4.7 -1.7 a 1 1 0 1 1 -1.9 -0.7 a 4.5 4.5 0 0 1 5.8 -2.7"/>
        <path d="M 36.3 23.2 a 4.5 4.5 0 0 1 3.8 8 a 1 1 0 0 1 -1.1 -1.6 a 2.5 2.5 0 1 0 -3 -4 a 1 1 0 1 1 -1.3 -1.6 a 4.5 4.5 0 0 1 1.6 -0.8 M 27.8 29 a 2.5 2.5 0 1 0 0 5 a 2.5 2.5 0 0 0 0 -5 m -4.5 2.5 a 4.5 4.5 0 1 1 9 0 a 4.5 4.5 0 0 1 -9 0"/>
        <path d="M 35.8 29 a 2.5 2.5 0 1 0 0 5 a 2.5 2.5 0 0 0 0 -5 m -4.5 2.5 a 4.5 4.5 0 1 1 9 0 a 4.5 4.5 0 0 1 -9 0"/>
        <path d="M 31.8 35 a 2.5 2.5 0 1 0 0 5 a 2.5 2.5 0 0 0 0 -5 m -4.5 2.5 a 4.5 4.5 0 1 1 9 0 a 4.5 4.5 0 0 1 -9 0"/>
        <path d="M 37.8 34 a 1 1 0 0 1 1.3 -0.6 a 4.5 4.5 0 1 1 -4.7 7.4 a 1 1 0 1 1 1.4 -1.4 a 2.5 2.5 0 1 0 2.6 -4.1 a 1 1 0 0 1 -0.6 -1.3"/>
    </g></svg>